<?xml version="1.0" standalone="no"?>
<!DOCTYPE svg PUBLIC "-//W3C//DTD SVG 20010904//EN"
 "http://www.w3.org/TR/2001/REC-SVG-20010904/DTD/svg10.dtd">
<svg version="1.0" xmlns="http://www.w3.org/2000/svg"
 width="119.000000pt" height="160.000000pt" viewBox="0 0 119.000000 160.000000"
 preserveAspectRatio="xMidYMid meet">

<g transform="translate(0.000000,160.000000) scale(0.100000,-0.100000)"
fill="#000000" stroke="none">
<path d="M993 1410 l-11 -29 27 16 c14 10 28 19 31 21 4 3 -20 22 -30 22 -3 0
-11 -13 -17 -30z"/>
<path d="M1046 991 c-11 -12 -14 -21 -7 -26 6 -3 11 -4 11 0 0 3 9 1 20 -5 23
-12 25 -5 7 28 -13 23 -13 23 -31 3z"/>
<path d="M220 956 c0 -25 5 -46 10 -46 6 0 10 7 10 16 0 9 9 18 21 21 31 9 21
47 -13 51 -27 3 -28 2 -28 -42z m42 19 c0 -5 -5 -11 -11 -13 -6 -2 -11 4 -11
13 0 9 5 15 11 13 6 -2 11 -8 11 -13z"/>
<path d="M302 988 c-14 -14 -16 -48 -3 -48 5 0 11 10 13 23 2 14 11 23 26 25
19 3 22 -1 22 -27 0 -28 -3 -31 -32 -31 -28 -1 -30 -2 -15 -11 40 -23 87 30
57 66 -15 18 -51 20 -68 3z"/>
<path d="M390 955 c0 -25 5 -45 10 -45 6 0 10 10 10 23 l1 22 20 -24 c11 -13
22 -21 26 -17 4 3 2 11 -5 18 -6 6 -8 24 -5 39 5 27 3 29 -26 29 -30 0 -31 -1
-31 -45z m48 23 c-6 -18 -28 -21 -28 -4 0 9 7 16 16 16 9 0 14 -5 12 -12z"/>
<path d="M473 993 c12 -3 17 -15 17 -44 0 -47 17 -45 18 2 0 18 7 36 14 40 8
6 -2 8 -27 8 -22 -1 -32 -3 -22 -6z"/>
<path d="M540 955 c0 -25 5 -45 10 -45 6 0 10 9 10 19 0 11 8 22 18 24 16 4
16 5 0 6 -26 2 -22 29 5 34 16 3 13 5 -10 6 -33 1 -33 0 -33 -44z"/>
<path d="M617 993 c-11 -11 -8 -58 5 -71 33 -33 91 16 68 57 -10 20 -58 30
-73 14z m58 -33 c0 -18 -6 -26 -21 -28 -26 -4 -40 24 -23 45 18 21 44 11 44
-17z"/>
<path d="M710 955 c0 -41 2 -45 25 -45 14 0 25 5 25 10 0 6 -7 10 -15 10 -10
0 -15 11 -15 35 0 19 -4 35 -10 35 -5 0 -10 -20 -10 -45z"/>
<path d="M772 955 c-1 -25 3 -45 8 -45 6 0 10 20 10 45 0 25 -4 45 -9 45 -5 0
-9 -20 -9 -45z"/>
<path d="M810 981 c-13 -26 1 -57 30 -66 30 -10 52 13 48 49 -3 27 -7 31 -35
34 -24 2 -34 -2 -43 -17z m64 -6 c8 -23 -4 -45 -24 -45 -24 0 -33 15 -25 40 7
23 40 27 49 5z"/>
<path d="M936 921 c10 -11 72 -27 63 -17 -4 4 -21 11 -39 16 -20 6 -30 6 -24
1z"/>
<path d="M1050 880 c8 -5 22 -9 30 -9 10 0 8 3 -5 9 -27 12 -43 12 -25 0z"/>
<path d="M427 873 c-4 -3 -7 -11 -7 -17 0 -6 5 -5 12 2 7 7 16 12 20 12 15 0
8 -27 -12 -45 -28 -26 -25 -35 13 -34 17 1 24 3 15 6 -21 5 -22 12 -3 36 7 11
11 25 8 33 -5 14 -35 19 -46 7z"/>
<path d="M494 867 c-3 -9 -4 -28 -2 -44 4 -38 44 -46 54 -9 3 13 4 33 2 43 -4
22 -46 30 -54 10z m40 -13 c8 -20 -2 -54 -14 -54 -12 0 -24 46 -15 59 9 16 22
13 29 -5z"/>
<path d="M567 873 c-4 -3 -7 -11 -7 -17 0 -6 5 -5 12 2 32 32 38 -2 7 -42
l-20 -26 33 1 c18 1 25 3 16 6 -22 6 -22 12 -2 34 9 10 14 25 11 34 -6 15 -38
21 -50 8z"/>
<path d="M635 870 c-4 -6 -4 -14 0 -18 4 -4 10 -1 12 6 3 6 9 12 14 12 14 0
11 -28 -3 -33 -10 -4 -10 -6 0 -6 6 -1 12 -8 12 -17 0 -11 -6 -14 -22 -9 -18
6 -20 4 -12 -5 7 -6 20 -10 30 -8 15 2 19 12 19 43 0 33 -4 41 -22 43 -11 2
-24 -2 -28 -8z"/>
<path d="M1111 871 c-10 -6 -9 -10 5 -15 20 -8 25 -4 16 11 -4 7 -13 9 -21 4z"/>
<path d="M1159 854 c-13 -14 -17 -23 -9 -19 13 5 46 45 37 45 -2 0 -14 -11
-28 -26z"/>
<path d="M968 803 c6 -2 18 -2 25 0 6 3 1 5 -13 5 -14 0 -19 -2 -12 -5z"/>
<path d="M905 790 c-8 -13 15 -13 35 0 12 8 11 10 -7 10 -12 0 -25 -4 -28 -10z"/>
<path d="M302 729 c6 -16 13 -28 15 -25 8 8 -6 56 -17 56 -5 0 -5 -13 2 -31z"/>
<path d="M344 736 c-3 -15 -4 -30 0 -33 3 -4 6 2 6 12 0 18 1 18 16 -1 14 -18
15 -18 8 6 -10 39 -22 46 -30 16z"/>
<path d="M396 734 c-9 -36 1 -43 14 -10 12 33 12 36 1 36 -5 0 -12 -12 -15
-26z"/>
<path d="M430 730 c0 -32 3 -34 35 -20 17 7 17 9 3 9 -22 1 -24 21 -3 21 8 0
15 5 15 10 0 6 -11 10 -25 10 -21 0 -25 -5 -25 -30z"/>
<path d="M500 733 c0 -23 4 -28 25 -28 29 0 45 32 24 46 -29 18 -49 10 -49
-18z m50 -3 c0 -5 -7 -10 -15 -10 -8 0 -15 5 -15 10 0 6 7 10 15 10 8 0 15 -4
15 -10z"/>
<path d="M587 753 c-13 -12 -7 -41 9 -47 25 -10 30 2 8 19 -18 14 -18 14 4 15
13 0 20 4 17 10 -7 11 -28 13 -38 3z"/>
<path d="M652 730 c0 -19 2 -27 5 -17 2 9 2 25 0 35 -3 9 -5 1 -5 -18z"/>
<path d="M680 750 c0 -5 5 -10 10 -10 6 0 10 -9 10 -20 0 -11 5 -20 10 -20 6
0 10 9 10 20 0 11 5 20 10 20 6 0 10 5 10 10 0 6 -13 10 -30 10 -16 0 -30 -4
-30 -10z"/>
<path d="M760 731 c0 -25 3 -28 23 -23 18 5 19 7 5 10 -25 5 -23 22 2 22 11 0
20 5 20 10 0 6 -11 10 -25 10 -21 0 -25 -5 -25 -29z"/>
<path d="M1144 711 c16 -18 16 -18 -9 -14 -33 7 -33 -14 0 -29 14 -6 25 -16
25 -21 0 -5 -7 -4 -15 3 -12 10 -18 11 -28 1 -9 -9 -3 -20 28 -48 22 -19 31
-30 19 -25 -11 6 -26 18 -34 26 -7 9 -24 16 -39 15 -23 0 -24 -1 -6 -9 11 -5
16 -9 11 -9 -5 -1 -1 -10 9 -21 11 -12 31 -20 52 -20 l33 0 0 69 c0 61 -3 72
-22 85 -31 22 -45 20 -24 -3z"/>
<path d="M1098 663 c7 -3 16 -2 19 1 4 3 -2 6 -13 5 -11 0 -14 -3 -6 -6z"/>
<path d="M1074 572 c3 -6 0 -13 -6 -15 -7 -3 -2 -6 10 -6 25 -1 26 19 2 27 -7
3 -10 0 -6 -6z"/>
<path d="M1025 483 c-89 -4 -145 -13 -145 -23 0 -12 190 0 225 16 34 14 41 13
-80 7z"/>
<path d="M665 460 c-75 -3 -104 -8 -91 -14 24 -12 267 1 280 14 11 11 10 11
-189 0z"/>
<path d="M0 201 l0 -201 70 0 70 0 0 149 0 149 -37 29 c-21 16 -53 39 -70 52
l-33 22 0 -200z"/>
<path d="M1138 373 c12 -2 30 -2 40 0 9 3 -1 5 -23 4 -22 0 -30 -2 -17 -4z"/>
</g>
</svg>
